# xmcd CD database file
#
# Track frame offsets:
#	150
#	15997
#	30803
#	48410
#	63527
#	80313
#	95289
#	113485
#	127584
#	142335
#	158491
#	175030
#
# Disc length: 2530 seconds
#
# Revision: 2
# Processed by: cddbd v1.5.2PL0 Copyright (c) Steve Scherf et al.
# Submitted via: CDex 1.77
#
DISCID=7f09e00c
DTITLE=John Berry - John Berry Hits
DYEAR=2017
DGENRE=Country
TTITLE0=Kiss Me In The Car
TTITLE1=You And Only You
TTITLE2=Your Love Amazes Me
TTITLE3=A Mind Of Her Own
TTITLE4=She's Taken A Shine
TTITLE5=Change My Mind
TTITLE6=Standing On The Edge Of Goodbye
TTITLE7=I Will, If You Will
TTITLE8=What's In It For Me
TTITLE9=I Think About It All The Time
TTITLE10=If I Had Any Pride Left At All
TTITLE11=When A Man Loves A Woman
EXTD=YEAR: 2017
EXTT0=
EXTT1=
EXTT2=
EXTT3=
EXTT4=
EXTT5=
EXTT6=
EXTT7=
EXTT8=
EXTT9=
EXTT10=
EXTT11=
PLAYORDER=
